<?xml version="1.0" encoding="UTF-8"?>
<svg xmlns="http://www.w3.org/2000/svg"
     viewBox="0 0 1024 1024"
     width="1024" height="1024">
  <g fill="#ffffff" stroke="none">
    <path d="M 720.0,778.5 L 710.0,777.5 L 700.5,770.0 L 698.5,764.0 L 699.5,751.0 L 705.0,744.5 L 728.0,728.5 L 742.5,714.0 L 755.5,693.0 L 762.5,671.0 L 763.5,630.0 L 761.5,606.0 L 756.5,583.0 L 757.5,542.0 L 767.5,524.0 L 784.0,507.5 L 810.0,489.5 L 815.0,488.5 L 833.0,478.5 L 839.0,477.5 L 843.5,470.0 L 843.5,447.0 L 840.5,427.0 L 835.5,412.0 L 825.5,395.0 L 812.0,381.5 L 795.0,371.5 L 778.0,366.5 L 769.0,366.5 L 759.0,369.5 L 746.0,378.5 L 730.5,394.0 L 700.5,432.0 L 685.5,454.0 L 666.5,477.0 L 648.0,495.5 L 629.0,510.5 L 613.0,520.5 L 596.0,527.5 L 571.0,533.5 L 545.0,534.5 L 515.0,528.5 L 497.0,521.5 L 471.0,505.5 L 461.0,497.5 L 437.5,474.0 L 419.5,452.0 L 406.5,433.0 L 388.5,401.0 L 386.5,394.0 L 381.5,387.0 L 380.5,382.0 L 369.5,359.0 L 353.5,313.0 L 353.5,308.0 L 369.5,279.0 L 380.5,251.0 L 381.5,232.0 L 374.0,222.5 L 363.0,221.5 L 356.0,224.5 L 337.0,238.5 L 329.0,237.5 L 321.0,232.5 L 317.5,228.0 L 314.5,222.0 L 312.5,209.0 L 306.5,194.0 L 300.0,187.5 L 294.0,187.5 L 284.5,196.0 L 278.5,211.0 L 278.5,216.0 L 273.5,232.0 L 265.0,242.5 L 251.0,244.5 L 225.0,231.5 L 216.0,230.5 L 212.0,232.5 L 210.5,235.0 L 210.5,249.0 L 217.5,264.0 L 227.0,273.5 L 238.0,279.5 L 242.5,284.0 L 245.5,290.0 L 245.5,299.0 L 239.0,309.5 L 194.0,340.5 L 188.5,346.0 L 187.5,350.0 L 190.0,352.5 L 208.0,356.5 L 260.0,362.5 L 266.0,365.5 L 272.5,372.0 L 273.5,451.0 L 278.5,528.0 L 289.5,593.0 L 297.5,624.0 L 304.5,641.0 L 317.5,664.0 L 334.5,685.0 L 354.0,703.5 L 368.0,713.5 L 370.0,716.5 L 374.0,717.5 L 385.0,725.5 L 403.0,734.5 L 427.0,742.5 L 435.5,750.0 L 437.5,754.0 L 437.5,763.0 L 435.5,769.0 L 426.0,777.5 L 410.0,777.5 L 405.0,774.5 L 393.0,771.5 L 360.0,754.5 L 324.0,727.5 L 305.5,709.0 L 287.5,687.0 L 277.5,672.0 L 267.5,652.0 L 262.5,641.0 L 261.5,633.0 L 256.5,620.0 L 244.5,560.0 L 243.5,543.0 L 239.5,519.0 L 238.5,491.0 L 235.5,465.0 L 235.5,432.0 L 233.5,400.0 L 230.0,397.5 L 200.0,393.5 L 169.0,385.5 L 152.0,375.5 L 146.5,370.0 L 142.5,363.0 L 142.5,345.0 L 146.5,337.0 L 161.0,319.5 L 180.0,303.5 L 186.0,300.5 L 191.5,293.0 L 182.5,281.0 L 177.5,271.0 L 175.5,261.0 L 171.5,252.0 L 171.5,231.0 L 178.5,213.0 L 188.0,201.5 L 204.0,192.5 L 226.0,192.5 L 237.0,196.5 L 242.0,196.5 L 248.5,185.0 L 250.5,178.0 L 266.0,160.5 L 276.0,154.5 L 298.0,148.5 L 312.0,151.5 L 322.0,156.5 L 334.5,168.0 L 342.5,182.0 L 347.0,186.5 L 371.0,182.5 L 388.0,187.5 L 401.0,195.5 L 413.5,209.0 L 419.5,223.0 L 420.5,232.0 L 419.5,253.0 L 414.5,271.0 L 409.5,281.0 L 407.5,289.0 L 398.5,304.0 L 394.5,315.0 L 399.5,331.0 L 407.5,348.0 L 408.5,354.0 L 427.5,393.0 L 444.5,422.0 L 466.5,450.0 L 482.0,465.5 L 501.0,480.5 L 516.0,488.5 L 536.0,495.5 L 572.0,495.5 L 589.0,489.5 L 603.0,482.5 L 617.0,472.5 L 650.5,437.0 L 698.5,373.0 L 726.0,345.5 L 745.0,334.5 L 762.0,329.5 L 793.0,330.5 L 808.0,335.5 L 825.0,344.5 L 840.0,355.5 L 852.5,368.0 L 868.5,392.0 L 879.5,424.0 L 881.5,471.0 L 880.5,491.0 L 877.5,498.0 L 872.0,504.5 L 852.0,511.5 L 846.0,515.5 L 827.0,523.5 L 811.0,533.5 L 796.5,549.0 L 793.5,558.0 L 793.5,567.0 L 801.5,623.0 L 801.5,666.0 L 798.5,685.0 L 788.5,713.0 L 775.5,734.0 L 744.0,764.5 L 726.0,776.5 L 720.0,778.5 Z"/>
    <path d="M 309.0,324.5 L 299.0,324.5 L 292.0,322.5 L 279.5,309.0 L 279.5,294.0 L 285.5,285.0 L 294.0,278.5 L 313.0,278.5 L 322.5,286.0 L 327.5,297.0 L 328.5,302.0 L 321.5,317.0 L 315.0,322.5 L 309.0,324.5 Z"/>
  </g>
</svg>
