<svg version="1.1" id="Layer_1" xmlns="http://www.w3.org/2000/svg" xmlns:xlink="http://www.w3.org/1999/xlink" x="0px" y="0px"
	 width="100%" viewBox="375 115 280 300" enable-background="new 375 115 280 300" xml:space="preserve">
<path fill="#228B22" opacity="1.000000" stroke="none" 
	d="
M510.499756,373.422668 
	C508.247620,358.348907 505.982605,343.721130 503.965668,329.059235 
	C503.556610,326.085388 502.266449,324.635620 499.510254,323.931824 
	C497.748199,323.481934 495.799072,323.005219 494.426910,321.918121 
	C488.116211,316.918457 483.148834,319.590179 477.832336,323.901947 
	C472.150909,328.509705 465.950073,332.478912 459.950775,336.690918 
	C458.925568,337.410675 458.022919,338.633453 456.452057,338.007050 
	C455.598114,336.601532 456.821442,335.854126 457.429443,334.980164 
	C462.757660,327.320526 468.022034,319.613312 473.515472,312.073273 
	C475.756836,308.996887 476.393890,306.315186 473.896118,303.083618 
	C471.842743,300.426910 470.693390,297.210999 469.874481,293.987823 
	C468.672516,289.256958 467.683685,284.768677 461.897095,283.203308 
	C459.275146,282.494049 458.387909,279.414520 457.422821,276.885345 
	C456.490601,274.442230 456.235504,271.701141 454.148773,269.275085 
	C451.397797,275.491974 450.921722,282.011566 449.220551,288.191284 
	C448.160706,292.041351 447.247284,295.933136 446.124939,299.764252 
	C445.017120,303.545929 442.308136,305.683075 438.438263,305.824554 
	C434.661560,305.962616 432.062256,303.725922 430.913361,300.306061 
	C428.584991,293.375458 426.556732,286.343994 424.198486,278.684052 
	C421.462372,282.252136 420.595306,286.119934 418.983765,289.595123 
	C414.730530,298.766968 406.114258,299.824860 400.562408,291.321716 
	C397.393402,286.468140 393.784058,284.756378 388.212402,285.098022 
	C381.404968,285.515411 374.552429,285.151489 367.721008,285.244202 
	C364.774139,285.284180 362.987396,284.511536 362.878357,281.110504 
	C362.765900,277.604218 364.388397,276.261353 367.636017,276.301483 
	C376.630615,276.412659 385.625122,276.534180 394.619904,276.628998 
	C399.239990,276.677704 402.361023,279.177094 404.963593,282.695099 
	C406.214539,284.386078 406.820557,286.675293 409.347107,287.598541 
	C412.649231,285.909607 412.746429,282.220978 413.991333,279.330261 
	C416.057251,274.533142 417.567444,269.032471 424.142090,269.287476 
	C430.941864,269.551147 432.197449,275.278168 433.745392,280.437927 
	C435.215546,285.338409 435.979065,290.459534 438.542999,295.965302 
	C441.030762,285.726959 443.337372,276.262146 445.628204,266.793518 
	C446.683105,262.433258 448.612000,258.943054 453.742889,258.733826 
	C458.862854,258.525085 461.023407,261.870453 462.574829,266.069763 
	C463.698944,269.112549 464.070404,272.541870 467.282562,275.617462 
	C469.409241,267.971832 471.725494,260.940857 475.437256,254.471588 
	C476.483917,252.647400 474.787598,251.007782 473.763763,249.528442 
	C468.548645,241.993118 463.261230,234.507599 458.083252,226.947006 
	C457.184113,225.634155 455.753174,224.512497 455.849365,222.614990 
	C457.215454,221.567169 458.006439,222.796082 458.849487,223.409225 
	C466.664459,229.093033 474.531952,234.710098 482.205170,240.580536 
	C484.971863,242.697189 487.271088,243.090805 490.315399,241.205231 
	C494.573059,238.568176 499.206207,236.652252 504.134766,235.553894 
	C506.237091,235.085388 507.881287,234.238388 507.844330,231.650421 
	C507.782837,227.344437 507.827576,223.036926 507.827576,218.342911 
	C500.682068,217.768677 494.270966,220.944580 486.816101,220.657364 
	C489.951172,212.895294 495.652496,207.268021 498.807190,200.174118 
	C496.920380,198.357651 494.369049,200.171112 491.945007,198.076782 
	C495.320007,192.728836 498.796051,187.220734 502.594116,181.202393 
	C497.141205,179.992477 498.549255,177.439667 500.445190,174.386414 
	C504.454376,167.930023 508.207336,161.314514 512.872375,153.394089 
	C518.311401,162.605164 523.033997,170.603043 527.540894,178.235580 
	C526.050293,180.609909 524.106323,178.852570 522.763062,180.367889 
	C526.377502,186.161896 530.031128,192.018768 533.676880,197.862991 
	C531.606995,200.051758 529.342224,198.606995 526.764587,199.855301 
	C530.804993,206.570847 534.810242,213.227982 539.662903,221.293579 
	C531.523315,219.921829 524.953369,218.814621 517.553284,217.567505 
	C517.553284,224.862213 517.448792,231.768356 517.605469,238.668579 
	C517.666748,241.364731 518.054565,243.659058 514.156799,243.704010 
	C511.924835,243.729767 511.997162,245.938751 511.966400,247.567734 
	C511.938049,249.066833 510.919983,250.995056 513.409790,251.706757 
	C516.226990,252.512070 517.742310,254.350876 516.848511,257.304016 
	C516.218445,259.385956 514.540833,260.629150 512.246765,260.363800 
	C508.951782,259.982635 507.794037,257.866821 508.015778,254.733917 
	C508.044220,254.331985 507.657440,253.900665 507.447662,253.449936 
	C504.968292,255.466843 504.045166,257.879974 506.079437,260.913879 
	C508.111786,263.944855 505.180206,267.179474 507.004211,269.421631 
	C508.897308,271.748810 510.313538,274.153076 511.102020,277.478119 
	C513.777466,275.463898 515.573547,272.890137 519.032043,273.480499 
	C520.854370,273.791595 522.760010,273.326477 523.314941,275.806244 
	C523.618530,277.162781 524.545288,277.736603 525.911865,277.502014 
	C527.374878,277.250885 527.662781,276.124298 527.701965,274.895538 
	C527.755066,273.230347 527.719116,271.562164 527.776855,269.897217 
	C527.939331,265.212311 530.838623,262.129761 535.492676,261.872986 
	C538.129822,261.727478 540.781677,261.846710 544.820557,261.846710 
	C541.412720,256.269073 537.929382,252.482834 533.191284,249.710052 
	C531.857727,251.470703 533.331482,252.371384 533.800415,253.493423 
	C534.789490,255.859879 534.870911,258.164368 532.534668,259.720276 
	C530.821411,260.861267 528.957825,260.422241 527.512329,258.986755 
	C525.695496,257.182556 525.770874,255.268219 527.208801,253.151596 
	C529.243896,250.155838 529.900635,247.341110 525.464905,245.846542 
	C523.525513,247.102386 524.101257,248.951447 524.191040,250.482788 
	C524.552490,256.648804 524.019348,262.670410 522.186951,268.598633 
	C521.533020,270.714050 520.626526,272.261902 518.255798,272.454620 
	C516.182678,272.623108 514.637390,271.712677 513.873901,269.827454 
	C512.951721,267.550476 513.402100,264.899597 515.567749,264.178986 
	C521.168030,262.315552 521.217346,258.080322 520.556580,253.703903 
	C519.623474,247.522751 522.857178,242.221848 523.147644,235.797363 
	C528.474976,236.944656 532.887207,238.784897 536.846436,241.515228 
	C539.512085,243.353500 541.492126,243.031799 543.968445,241.142990 
	C551.386292,235.485046 558.960815,230.031738 566.506775,224.543320 
	C567.786499,223.612534 568.905090,222.258499 571.241760,222.199326 
	C570.628662,225.369736 568.474243,227.307205 566.986450,229.531204 
	C562.447998,236.315140 557.804626,243.030853 553.090576,249.694275 
	C551.267273,252.271622 550.760803,254.569290 552.631470,257.444641 
	C555.572754,261.965820 556.931580,267.169769 558.122864,272.374756 
	C558.500793,274.025848 558.506958,275.957336 560.577576,276.251770 
	C567.466064,277.231323 569.542297,282.370819 571.137207,288.035309 
	C571.573303,289.584442 571.867737,291.249207 573.711731,292.699646 
	C575.739807,283.840424 577.712463,275.294708 579.649536,266.740875 
	C581.444641,258.813477 583.797852,255.836655 588.484436,255.664734 
	C593.471313,255.481781 596.137939,258.306763 598.369141,266.325439 
	C599.789124,271.429077 601.088928,276.566132 602.654175,282.488647 
	C605.803101,279.446259 606.402039,275.957977 607.687378,272.912994 
	C609.463013,268.706085 611.685059,265.129181 616.758667,264.737671 
	C621.774048,264.350616 624.952637,267.293732 627.115173,271.270264 
	C629.415955,275.500824 632.728638,276.900787 637.382507,276.722748 
	C644.371887,276.455505 651.379944,276.718231 658.376587,276.579559 
	C661.666748,276.514374 663.308411,277.547974 663.252075,281.131165 
	C663.197693,284.590454 661.390991,285.279022 658.458069,285.245453 
	C650.959778,285.159729 643.451538,284.991882 635.963379,285.278687 
	C629.300659,285.533905 624.321533,283.274628 621.006104,277.381958 
	C620.233887,276.009583 619.595825,274.303223 617.291382,273.712311 
	C614.375916,277.473175 613.186462,282.195831 611.184753,286.490387 
	C609.702881,289.669495 607.688477,292.202362 604.038635,292.851471 
	C600.187805,293.536346 596.616943,290.907928 595.031982,285.863312 
	C593.007568,279.419647 591.275879,272.884033 588.506897,266.382751 
	C586.776428,273.925751 585.071289,281.474670 583.301514,289.008453 
	C582.693420,291.596954 582.031921,294.183044 581.202942,296.707184 
	C579.949829,300.522522 577.455078,303.136200 573.222473,303.058105 
	C569.309814,302.985931 566.779724,300.683563 565.462463,297.040283 
	C564.556580,294.534668 563.701843,292.009430 562.741028,289.525177 
	C562.167297,288.041962 562.018433,286.188965 559.938293,285.702759 
	C557.617493,286.428619 558.123291,288.682434 557.677673,290.272766 
	C556.416626,294.773102 555.360779,299.361389 552.669739,303.257019 
	C550.683716,306.131866 550.765320,308.447540 552.891785,311.331299 
	C558.328430,318.703979 563.457703,326.304169 568.664734,333.844513 
	C569.547485,335.122894 570.999939,336.211945 570.750488,338.111542 
	C568.541565,338.825409 567.533386,337.121979 566.289246,336.243317 
	C559.212158,331.244995 552.094727,326.290924 545.226440,321.015411 
	C542.059570,318.583038 539.273315,317.586853 535.887207,320.273254 
	C535.119812,320.882080 534.162170,321.493042 533.228821,321.613525 
	C523.027710,322.930389 522.283752,330.520782 521.203613,338.562164 
	C519.151184,353.841187 516.432373,369.030670 513.271790,384.335205 
	C511.177765,381.093201 510.924866,377.461304 510.499756,373.422668 
M527.147705,299.538483 
	C524.103638,300.452362 519.710571,300.862000 518.773438,303.420441 
	C517.348511,307.311005 517.743896,311.986115 519.045471,317.428528 
	C521.499817,314.362366 521.037476,311.960327 521.084106,309.775421 
	C521.172485,305.632172 522.462219,303.571991 527.266357,303.588135 
	C537.717041,303.623260 537.718018,303.335022 537.770447,293.160553 
	C537.804199,286.617065 538.786987,285.629822 545.633789,285.007690 
	C546.951111,284.888031 548.776794,285.509247 549.125244,283.285828 
	C543.128784,280.899109 539.112610,281.391388 535.333618,285.735046 
	C532.338684,289.177521 529.008728,290.559387 524.446899,290.427521 
	C520.738342,290.320404 516.711304,289.187439 513.258484,291.601105 
	C510.885132,293.260223 508.691803,293.673187 506.637878,291.298340 
	C505.281128,289.729675 505.109161,287.928070 506.519043,286.305573 
	C508.487366,284.040466 510.602478,284.279297 513.203491,285.624481 
	C519.425598,288.842377 529.702698,287.049286 534.070984,281.947296 
	C536.370667,279.261322 538.867676,278.040771 542.343628,278.550751 
	C543.646545,278.741882 545.009277,278.627136 546.335632,278.529449 
	C547.814575,278.420502 549.621643,278.454651 549.514954,276.279449 
	C549.396362,273.860138 547.438599,274.138519 545.784241,274.074341 
	C543.840210,273.998993 542.339783,275.206360 540.627930,275.805176 
	C538.424622,276.575897 536.676392,275.710236 535.448181,273.895508 
	C534.532715,272.542877 534.523254,271.002106 535.614380,269.712860 
	C537.023499,268.047760 538.768433,267.270325 540.927368,268.333435 
	C541.820374,268.773163 542.648071,269.433350 543.587097,269.671112 
	C545.021057,270.034149 546.930359,270.444275 547.330566,268.474487 
	C547.738098,266.468536 546.233948,265.451080 544.291199,265.441162 
	C542.132385,265.430145 539.969604,265.695251 537.814087,265.636017 
	C532.536316,265.490997 531.542175,266.456451 531.288757,271.886658 
	C531.119446,275.513794 532.575867,280.160583 527.026123,281.100983 
	C523.352600,281.723511 520.738770,285.159790 516.431274,284.308380 
	C513.995422,283.826904 513.525513,280.959564 511.114075,281.041290 
	C505.326111,281.237396 507.582428,275.538544 505.314423,273.101257 
	C502.881287,270.486542 499.544525,268.371124 499.248291,264.282288 
	C499.203644,263.666077 499.455109,262.899841 499.832947,262.403381 
	C501.680908,259.975189 501.848175,257.197723 501.717468,254.328110 
	C501.586975,251.462952 501.829926,248.913498 505.644928,248.733215 
	C507.293335,248.655334 507.999298,247.454590 507.634705,245.922180 
	C507.215363,244.159470 505.779907,244.369293 504.402313,244.579422 
	C498.401703,245.494797 496.951874,247.649017 498.735077,253.288177 
	C499.381470,255.332275 498.788910,256.879883 497.295319,258.192291 
	C496.015167,259.317230 494.581909,259.355194 493.137390,258.499207 
	C491.558655,257.563629 490.746674,256.156219 491.007385,254.328278 
	C491.147705,253.344376 491.606689,252.405945 492.129028,250.817001 
	C487.891327,253.850281 484.497498,256.589508 483.082855,261.081604 
	C484.799469,262.061707 485.939972,261.382996 486.975189,260.488403 
	C489.001373,258.737457 491.081299,258.216522 493.181305,260.251678 
	C494.755676,261.777496 494.654480,263.581024 493.385071,265.201599 
	C491.683624,267.373657 489.705719,267.456604 487.213562,266.167542 
	C484.621063,264.826630 481.839600,264.575134 478.843567,267.253906 
	C482.192932,268.572845 484.689087,268.030609 487.115845,267.996490 
	C496.872559,267.859467 503.351807,273.934509 503.235504,283.687988 
	C503.182434,288.136719 504.000580,291.909821 507.693024,294.714813 
	C511.192627,297.373352 512.091919,300.958344 512.089844,305.266083 
	C512.087891,309.244598 510.615143,313.398254 512.593872,317.551453 
	C515.476196,316.388763 514.604675,314.097717 514.660828,312.328949 
	C514.834106,306.875671 514.247131,301.371765 516.948669,296.238190 
	C518.361572,293.553345 520.340454,292.186005 522.930786,293.889069 
	C525.440491,295.539124 527.164124,295.377716 529.593628,293.742737 
	C531.905334,292.187073 534.172913,293.319824 535.290283,295.849335 
	C536.396851,298.354279 535.011230,300.047394 532.854370,301.072998 
	C530.917542,301.993988 529.340942,300.752075 527.147705,299.538483 
M488.174988,288.657288 
	C484.505951,289.694733 481.818237,284.495239 477.910522,286.998962 
	C478.060333,292.787903 480.213593,294.344391 485.208344,291.932617 
	C487.609314,290.773315 489.607635,290.341156 491.426605,292.559326 
	C492.790405,294.222382 492.539520,296.017792 491.175995,297.547089 
	C489.238922,299.719696 487.112457,299.286957 484.936432,297.803955 
	C483.989471,297.158569 482.939636,296.540161 481.064117,297.728485 
	C483.739777,303.377289 487.741333,307.599487 493.261078,311.109039 
	C493.979370,308.507446 492.453979,307.520752 492.029510,306.137268 
	C491.426208,304.170776 491.753754,302.459381 493.635040,301.393494 
	C495.380157,300.404755 497.190918,300.438171 498.713379,301.854309 
	C500.734985,303.734772 499.907593,305.664337 498.777679,307.702545 
	C496.143311,312.454407 496.983978,314.151703 502.198242,314.787262 
	C503.444641,307.759613 503.251648,301.204712 496.585022,296.632904 
	C494.295837,295.063049 493.508820,292.920593 493.654022,290.191315 
	C493.795227,287.538025 493.649689,284.868134 493.596802,282.206207 
	C493.550354,279.866760 492.316711,278.282867 490.033356,278.147339 
	C486.556671,277.940887 483.054993,278.045288 479.568665,278.160583 
	C478.040009,278.211151 477.095276,279.158600 477.281952,280.803253 
	C477.483124,282.575562 478.872101,282.705841 480.250854,282.748718 
	C481.445465,282.785950 482.553833,282.533966 483.510193,281.744995 
	C485.627899,279.998016 487.921082,279.877716 489.747742,281.895294 
	C491.810669,284.173859 491.196808,286.470428 488.174988,288.657288 
M537.949951,307.461914 
	C543.162231,302.305725 547.508545,296.681427 548.630859,289.063019 
	C541.684021,287.897339 541.289917,288.246735 541.279114,294.870056 
	C541.262268,305.178375 539.675964,306.872070 529.728943,307.202362 
	C524.315491,307.382111 523.345032,309.055511 525.700806,314.832642 
	C530.386902,313.893799 534.020081,311.117737 537.949951,307.461914 
M491.760437,272.181396 
	C487.315796,272.287659 482.790131,271.426056 477.675812,272.861023 
	C480.294891,274.494934 482.335297,274.029816 484.272552,274.024109 
	C495.620483,273.990540 497.374054,275.615570 497.161102,287.044312 
	C497.094147,290.637726 497.754120,293.526611 500.791382,295.747101 
	C505.193207,298.965210 506.913574,303.297485 506.181702,308.795715 
	C505.886597,311.012695 505.470398,313.532959 507.356171,315.529785 
	C506.976654,309.208099 510.895569,302.148071 504.763184,296.844086 
	C500.693970,293.324554 499.017029,289.285583 499.746582,284.106262 
	C500.578461,278.200623 497.268860,274.839600 491.760437,272.181396 
z"/>
<path fill="#ffffff" opacity="1.000000" stroke="none" 
	d="
M395.551514,226.522324 
	C390.890076,239.010269 388.817017,251.613953 388.328491,264.482666 
	C388.200684,267.848785 387.633942,269.697876 383.582581,269.551056 
	C379.680145,269.409637 379.470367,267.534271 379.537506,264.442535 
	C380.731476,209.449158 417.536896,159.820648 469.676727,141.931427 
	C541.684448,117.225548 617.980225,157.805191 640.538452,228.910873 
	C644.214783,240.498856 646.613586,252.421829 646.404114,264.736450 
	C646.349792,267.925995 645.650940,269.772278 642.050964,269.864624 
	C638.411926,269.957977 637.718018,268.158783 637.585876,264.939453 
	C635.048096,203.090851 590.823303,153.334396 529.501526,144.679123 
	C492.929169,139.517136 460.244476,150.016647 432.028687,173.787918 
	C415.256042,187.918594 403.300598,205.576950 395.551514,226.522324 
z"/>
<path fill="#ffffff" opacity="1.000000" stroke="none" 
	d="
M460.402954,391.760834 
	C419.085052,372.790588 393.108673,341.587860 382.522430,297.698303 
	C381.981293,295.454834 380.357208,292.597290 384.495941,291.859680 
	C388.155304,291.207550 390.285370,292.317230 391.275757,296.346771 
	C401.618256,338.426971 426.674591,368.639252 466.850128,384.527863 
	C512.946289,402.757874 555.877930,395.076172 593.975464,363.330444 
	C614.953674,345.849762 628.389404,323.342773 634.678589,296.683685 
	C635.221680,294.381561 635.550903,292.123016 638.689819,291.796204 
	C643.241272,291.322174 644.558533,292.442871 643.548645,296.926971 
	C634.308899,337.952820 610.880615,368.457306 573.755432,387.699799 
	C537.033875,406.733124 499.047943,407.364624 460.402954,391.760834 
z"/>
</svg>